<?xml version="1.0" encoding="UTF-8" standalone="no"?>
<!DOCTYPE svg PUBLIC "-//W3C//DTD SVG 1.1//EN" "http://www.w3.org/Graphics/SVG/1.1/DTD/svg11.dtd">
<svg version="1.1" xmlns="http://www.w3.org/2000/svg" xmlns:xlink="http://www.w3.org/1999/xlink" preserveAspectRatio="xMidYMid meet" viewBox="0 0 48 48" width="48" height="48"><defs><path d="M9.35 37.26L4.88 37.26L7.12 39.57L7.12 39.57L7.12 39.57L7.12 39.57L7.12 39.57L7.12 39.57L7.12 39.57L7.12 39.57L7.12 39.57L7.12 39.57L7.12 39.57L7.12 39.57L7.12 39.57L7.12 39.57L7.12 39.57L7.12 39.57L7.12 39.57L7.12 39.57L7.12 39.57L7.12 39.57L7.12 39.57L7.12 39.57L7.12 39.57L7.12 39.57L7.12 39.57L7.12 39.57L7.12 39.57L7.12 39.57L7.12 39.57L7.12 39.57L7.12 39.57L7.12 39.57L7.12 39.57L7.12 39.57L7.12 39.57L9.35 37.26ZM3.69 38.49L3.69 43.1L5.93 40.79L5.93 40.79L5.93 40.79L5.93 40.79L5.93 40.79L5.93 40.79L5.93 40.79L5.93 40.79L5.93 40.79L5.93 40.79L5.93 40.79L5.93 40.79L5.93 40.79L5.93 40.79L5.93 40.79L5.93 40.79L5.93 40.79L5.93 40.79L5.93 40.79L5.93 40.79L5.93 40.79L5.93 40.79L5.93 40.79L5.93 40.79L5.93 40.79L5.93 40.79L5.93 40.79L5.93 40.79L5.93 40.79L5.93 40.79L5.93 40.79L5.93 40.79L5.93 40.79L5.93 40.79L5.93 40.79L3.69 38.49ZM18.27 24.35L22.84 24.35L22.84 29.14L18.27 29.14L18.27 29.14L18.27 29.14L18.27 29.14L18.27 29.14L18.27 29.14L18.27 29.14L18.27 29.14L18.27 29.14L18.27 29.14L18.27 29.14L18.27 29.14L18.27 29.14L18.27 29.14L18.27 29.14L18.27 29.14L18.27 29.14L18.27 29.14L18.27 29.14L18.27 29.14L18.27 29.14L18.27 29.14L18.27 29.14L18.27 29.14L18.27 29.14L18.27 29.14L18.27 29.14L18.27 29.14L18.27 29.14L18.27 29.14L18.27 29.14L18.27 29.14L18.27 29.14L18.27 29.14L18.27 24.35ZM0 32.45L7.53 24.77L17.15 24.77L17.15 29.14L14.02 32.45L7.85 32.45L7.85 32.45L7.85 32.45L7.85 32.45L7.85 32.45L7.85 32.45L7.85 32.45L7.85 32.45L7.85 32.45L7.85 32.45L7.85 32.45L7.85 32.45L7.85 32.45L7.85 32.45L7.85 32.45L7.85 32.45L7.85 32.45L7.85 32.45L7.85 32.45L7.85 32.45L7.85 32.45L7.85 32.45L7.85 32.45L7.85 32.45L7.85 32.45L7.85 32.45L7.85 32.45L7.85 32.45L7.85 32.45L7.85 32.45L7.85 32.45L7.85 32.45L7.85 32.45L0 32.45ZM15.12 48L22.58 40.23L22.58 30.32L18.33 30.32L15.12 33.54L15.12 39.9L15.12 39.9L15.12 39.9L15.12 39.9L15.12 39.9L15.12 39.9L15.12 39.9L15.12 39.9L15.12 39.9L15.12 39.9L15.12 39.9L15.12 39.9L15.12 39.9L15.12 39.9L15.12 39.9L15.12 39.9L15.12 39.9L15.12 39.9L15.12 39.9L15.12 39.9L15.12 39.9L15.12 39.9L15.12 39.9L15.12 39.9L15.12 39.9L15.12 39.9L15.12 39.9L15.12 39.9L15.12 39.9L15.12 39.9L15.12 39.9L15.12 39.9L15.12 48ZM6.25 39.88L7.93 39.88L7.93 41.62L6.25 41.62L6.25 41.62L6.25 41.62L6.25 41.62L6.25 41.62L6.25 41.62L6.25 41.62L6.25 41.62L6.25 41.62L6.25 41.62L6.25 41.62L6.25 41.62L6.25 41.62L6.25 41.62L6.25 41.62L6.25 41.62L6.25 41.62L6.25 41.62L6.25 41.62L6.25 41.62L6.25 41.62L6.25 41.62L6.25 41.62L6.25 41.62L6.25 41.62L6.25 41.62L6.25 41.62L6.25 41.62L6.25 41.62L6.25 41.62L6.25 41.62L6.25 39.88ZM4.82 44.25L9.3 44.25L7.06 41.94L7.06 41.94L7.06 41.94L7.06 41.94L7.06 41.94L7.06 41.94L7.06 41.94L7.06 41.94L7.06 41.94L7.06 41.94L7.06 41.94L7.06 41.94L7.06 41.94L7.06 41.94L7.06 41.94L7.06 41.94L7.06 41.94L7.06 41.94L7.06 41.94L7.06 41.94L7.06 41.94L7.06 41.94L7.06 41.94L7.06 41.94L7.06 41.94L7.06 41.94L7.06 41.94L7.06 41.94L7.06 41.94L7.06 41.94L4.82 44.25ZM10.48 43.02L10.49 38.41L8.25 40.72L8.25 40.72L8.25 40.72L8.25 40.72L8.25 40.72L8.25 40.72L8.25 40.72L8.25 40.72L8.25 40.72L8.25 40.72L8.25 40.72L8.25 40.72L8.25 40.72L8.25 40.72L8.25 40.72L8.25 40.72L8.25 40.72L8.25 40.72L8.25 40.72L8.25 40.72L8.25 40.72L8.25 40.72L8.25 40.72L8.25 40.72L8.25 40.72L8.25 40.72L8.25 40.72L8.25 40.72L8.25 40.72L10.48 43.02ZM14.05 32.48L15.11 33.56L10.44 38.38L9.38 37.29L9.38 37.29L9.38 37.29L9.38 37.29L9.38 37.29L9.38 37.29L9.38 37.29L9.38 37.29L9.38 37.29L9.38 37.29L9.38 37.29L9.38 37.29L9.38 37.29L9.38 37.29L9.38 37.29L9.38 37.29L9.38 37.29L9.38 37.29L9.38 37.29L9.38 37.29L9.38 37.29L9.38 37.29L9.38 37.29L9.38 37.29L9.38 37.29L9.38 37.29L9.38 37.29L9.38 37.29L14.05 32.48ZM36.04 38.3L36.04 42.92L38.28 40.61L38.28 40.61L38.28 40.61L38.28 40.61L38.28 40.61L38.28 40.61L38.28 40.61L38.28 40.61L38.28 40.61L38.28 40.61L38.28 40.61L38.28 40.61L38.28 40.61L38.28 40.61L38.28 40.61L38.28 40.61L38.28 40.61L38.28 40.61L38.28 40.61L38.28 40.61L38.28 40.61L38.28 40.61L38.28 40.61L38.28 40.61L38.28 40.61L38.28 40.61L38.28 40.61L36.04 38.3ZM37.23 44.14L41.71 44.15L39.47 41.84L39.47 41.84L39.47 41.84L39.47 41.84L39.47 41.84L39.47 41.84L39.47 41.84L39.47 41.84L39.47 41.84L39.47 41.84L39.47 41.84L39.47 41.84L39.47 41.84L39.47 41.84L39.47 41.84L39.47 41.84L39.47 41.84L39.47 41.84L39.47 41.84L39.47 41.84L39.47 41.84L39.47 41.84L39.47 41.84L39.47 41.84L39.47 41.84L39.47 41.84L37.23 44.14ZM23.52 29.11L23.52 24.41L28.17 24.41L28.17 29.11L28.17 29.11L28.17 29.11L28.17 29.11L28.17 29.11L28.17 29.11L28.17 29.11L28.17 29.11L28.17 29.11L28.17 29.11L28.17 29.11L28.17 29.11L28.17 29.11L28.17 29.11L28.17 29.11L28.17 29.11L28.17 29.11L28.17 29.11L28.17 29.11L28.17 29.11L28.17 29.11L28.17 29.11L28.17 29.11L28.17 29.11L28.17 29.11L23.52 29.11ZM31.37 47.95L23.92 40.18L23.92 30.27L28.17 30.27L31.37 33.49L31.37 39.85L31.37 39.85L31.37 39.85L31.37 39.85L31.37 39.85L31.37 39.85L31.37 39.85L31.37 39.85L31.37 39.85L31.37 39.85L31.37 39.85L31.37 39.85L31.37 39.85L31.37 39.85L31.37 39.85L31.37 39.85L31.37 39.85L31.37 39.85L31.37 39.85L31.37 39.85L31.37 39.85L31.37 39.85L31.37 39.85L31.37 39.85L31.37 47.95ZM46.46 32.35L38.93 24.67L29.31 24.67L29.31 29.05L32.44 32.35L38.61 32.35L38.61 32.35L38.61 32.35L38.61 32.35L38.61 32.35L38.61 32.35L38.61 32.35L38.61 32.35L38.61 32.35L38.61 32.35L38.61 32.35L38.61 32.35L38.61 32.35L38.61 32.35L38.61 32.35L38.61 32.35L38.61 32.35L38.61 32.35L38.61 32.35L38.61 32.35L38.61 32.35L38.61 32.35L38.61 32.35L46.46 32.35ZM38.59 41.5L38.59 39.77L40.27 39.77L40.27 41.5L40.27 41.5L40.27 41.5L40.27 41.5L40.27 41.5L40.27 41.5L40.27 41.5L40.27 41.5L40.27 41.5L40.27 41.5L40.27 41.5L40.27 41.5L40.27 41.5L40.27 41.5L40.27 41.5L40.27 41.5L40.27 41.5L40.27 41.5L40.27 41.5L40.27 41.5L40.27 41.5L40.27 41.5L38.59 41.5ZM42.82 42.98L42.82 38.36L40.58 40.67L40.58 40.67L40.58 40.67L40.58 40.67L40.58 40.67L40.58 40.67L40.58 40.67L40.58 40.67L40.58 40.67L40.58 40.67L40.58 40.67L40.58 40.67L40.58 40.67L40.58 40.67L40.58 40.67L40.58 40.67L40.58 40.67L40.58 40.67L40.58 40.67L40.58 40.67L40.58 40.67L42.82 42.98ZM41.63 37.14L37.16 37.14L39.39 39.45L39.39 39.45L39.39 39.45L39.39 39.45L39.39 39.45L39.39 39.45L39.39 39.45L39.39 39.45L39.39 39.45L39.39 39.45L39.39 39.45L39.39 39.45L39.39 39.45L39.39 39.45L39.39 39.45L39.39 39.45L39.39 39.45L39.39 39.45L39.39 39.45L39.39 39.45L41.63 37.14ZM31.4 33.46L32.46 32.37L37.12 37.19L36.07 38.28L36.07 38.28L36.07 38.28L36.07 38.28L36.07 38.28L36.07 38.28L36.07 38.28L36.07 38.28L36.07 38.28L36.07 38.28L36.07 38.28L36.07 38.28L36.07 38.28L36.07 38.28L36.07 38.28L36.07 38.28L36.07 38.28L36.07 38.28L36.07 38.28L31.4 33.46ZM37.11 10.74L41.58 10.74L39.34 8.43L39.34 8.43L39.34 8.43L39.34 8.43L39.34 8.43L39.34 8.43L39.34 8.43L39.34 8.43L39.34 8.43L39.34 8.43L39.34 8.43L39.34 8.43L39.34 8.43L39.34 8.43L39.34 8.43L39.34 8.43L39.34 8.43L39.34 8.43L37.11 10.74ZM42.77 9.51L42.77 4.9L40.53 7.21L40.53 7.21L40.53 7.21L40.53 7.21L40.53 7.21L40.53 7.21L40.53 7.21L40.53 7.21L40.53 7.21L40.53 7.21L40.53 7.21L40.53 7.21L40.53 7.21L40.53 7.21L40.53 7.21L40.53 7.21L40.53 7.21L42.77 9.51ZM28.19 23.65L23.62 23.65L23.62 18.86L28.19 18.86L28.19 18.86L28.19 18.86L28.19 18.86L28.19 18.86L28.19 18.86L28.19 18.86L28.19 18.86L28.19 18.86L28.19 18.86L28.19 18.86L28.19 18.86L28.19 18.86L28.19 18.86L28.19 18.86L28.19 18.86L28.19 23.65ZM46.46 15.55L38.93 23.24L29.31 23.24L29.31 18.86L32.44 15.55L38.61 15.55L38.61 15.55L38.61 15.55L38.61 15.55L38.61 15.55L38.61 15.55L38.61 15.55L38.61 15.55L38.61 15.55L38.61 15.55L38.61 15.55L38.61 15.55L38.61 15.55L38.61 15.55L38.61 15.55L46.46 15.55ZM31.34 0L23.88 7.77L23.88 17.68L28.13 17.68L31.34 14.46L31.34 8.1L31.34 8.1L31.34 8.1L31.34 8.1L31.34 8.1L31.34 8.1L31.34 8.1L31.34 8.1L31.34 8.1L31.34 8.1L31.34 8.1L31.34 8.1L31.34 8.1L31.34 8.1L31.34 0ZM40.21 8.12L38.53 8.12L38.53 6.38L40.21 6.38L40.21 6.38L40.21 6.38L40.21 6.38L40.21 6.38L40.21 6.38L40.21 6.38L40.21 6.38L40.21 6.38L40.21 6.38L40.21 6.38L40.21 6.38L40.21 6.38L40.21 8.12ZM41.64 3.75L37.16 3.75L39.4 6.06L39.4 6.06L39.4 6.06L39.4 6.06L39.4 6.06L39.4 6.06L39.4 6.06L39.4 6.06L39.4 6.06L39.4 6.06L39.4 6.06L39.4 6.06L41.64 3.75ZM35.98 4.98L35.97 9.59L38.21 7.28L38.21 7.28L38.21 7.28L38.21 7.28L38.21 7.28L38.21 7.28L38.21 7.28L38.21 7.28L38.21 7.28L38.21 7.28L38.21 7.28L35.98 4.98ZM32.41 15.52L31.35 14.44L36.02 9.62L37.08 10.71L37.08 10.71L37.08 10.71L37.08 10.71L37.08 10.71L37.08 10.71L37.08 10.71L37.08 10.71L37.08 10.71L37.08 10.71L32.41 15.52ZM10.42 9.7L10.42 5.08L8.18 7.39L8.18 7.39L8.18 7.39L8.18 7.39L8.18 7.39L8.18 7.39L8.18 7.39L8.18 7.39L8.18 7.39L10.42 9.7ZM9.23 3.86L4.75 3.85L6.99 6.16L6.99 6.16L6.99 6.16L6.99 6.16L6.99 6.16L6.99 6.16L6.99 6.16L6.99 6.16L9.23 3.86ZM22.94 18.89L22.94 23.6L18.29 23.6L18.29 18.89L18.29 18.89L18.29 18.89L18.29 18.89L18.29 18.89L18.29 18.89L18.29 18.89L22.94 18.89ZM15.09 0.05L22.54 7.82L22.54 17.73L18.29 17.73L15.09 14.51L15.09 8.15L15.09 8.15L15.09 8.15L15.09 8.15L15.09 8.15L15.09 8.15L15.09 0.05ZM0 15.65L7.53 23.33L17.15 23.33L17.15 18.95L14.02 15.65L7.85 15.65L7.85 15.65L7.85 15.65L7.85 15.65L7.85 15.65L0 15.65ZM7.87 6.5L7.87 8.23L6.19 8.23L6.19 6.5L6.19 6.5L6.19 6.5L6.19 6.5L7.87 6.5ZM3.64 5.02L3.64 9.64L5.88 7.33L5.88 7.33L5.88 7.33L3.64 5.02ZM4.83 10.86L9.3 10.86L7.07 8.55L7.07 8.55L4.83 10.86ZM15.06 14.54L14 15.63L9.34 10.81L10.39 9.72L15.06 14.54Z" id="b1jrLfNbqn"></path></defs><g><g><g><use xlink:href="#b1jrLfNbqn" opacity="1" fill="#76b48f" fill-opacity="1"></use></g></g></g></svg>