<?xml version="1.0" encoding="UTF-8" standalone="no"?>
<!DOCTYPE svg PUBLIC "-//W3C//DTD SVG 1.1//EN" "http://www.w3.org/Graphics/SVG/1.1/DTD/svg11.dtd">
<svg version="1.1" xmlns="http://www.w3.org/2000/svg" xmlns:xlink="http://www.w3.org/1999/xlink" preserveAspectRatio="xMidYMid meet" viewBox="0 0 48 48" width="48" height="48"><defs><path d="M9.64 37.26L5.03 37.26L7.34 39.57L7.34 39.57L7.34 39.57L7.34 39.57L7.34 39.57L7.34 39.57L7.34 39.57L7.34 39.57L7.34 39.57L7.34 39.57L7.34 39.57L7.34 39.57L7.34 39.57L7.34 39.57L7.34 39.57L7.34 39.57L7.34 39.57L7.34 39.57L7.34 39.57L7.34 39.57L7.34 39.57L7.34 39.57L7.34 39.57L7.34 39.57L7.34 39.57L7.34 39.57L7.34 39.57L7.34 39.57L7.34 39.57L7.34 39.57L7.34 39.57L7.34 39.57L7.34 39.57L7.34 39.57L7.34 39.57L9.64 37.26ZM3.81 38.49L3.8 43.1L6.11 40.79L6.11 40.79L6.11 40.79L6.11 40.79L6.11 40.79L6.11 40.79L6.11 40.79L6.11 40.79L6.11 40.79L6.11 40.79L6.11 40.79L6.11 40.79L6.11 40.79L6.11 40.79L6.11 40.79L6.11 40.79L6.11 40.79L6.11 40.79L6.11 40.79L6.11 40.79L6.11 40.79L6.11 40.79L6.11 40.79L6.11 40.79L6.11 40.79L6.11 40.79L6.11 40.79L6.11 40.79L6.11 40.79L6.11 40.79L6.11 40.79L6.11 40.79L6.11 40.79L6.11 40.79L6.11 40.79L3.81 38.49ZM18.84 24.35L23.54 24.35L23.54 29.14L18.84 29.14L18.84 29.14L18.84 29.14L18.84 29.14L18.84 29.14L18.84 29.14L18.84 29.14L18.84 29.14L18.84 29.14L18.84 29.14L18.84 29.14L18.84 29.14L18.84 29.14L18.84 29.14L18.84 29.14L18.84 29.14L18.84 29.14L18.84 29.14L18.84 29.14L18.84 29.14L18.84 29.14L18.84 29.14L18.84 29.14L18.84 29.14L18.84 29.14L18.84 29.14L18.84 29.14L18.84 29.14L18.84 29.14L18.84 29.14L18.84 29.14L18.84 29.14L18.84 29.14L18.84 29.14L18.84 24.35ZM0 32.45L7.77 24.77L17.68 24.77L17.68 29.14L14.46 32.45L8.1 32.45L8.1 32.45L8.1 32.45L8.1 32.45L8.1 32.45L8.1 32.45L8.1 32.45L8.1 32.45L8.1 32.45L8.1 32.45L8.1 32.45L8.1 32.45L8.1 32.45L8.1 32.45L8.1 32.45L8.1 32.45L8.1 32.45L8.1 32.45L8.1 32.45L8.1 32.45L8.1 32.45L8.1 32.45L8.1 32.45L8.1 32.45L8.1 32.45L8.1 32.45L8.1 32.45L8.1 32.45L8.1 32.45L8.1 32.45L8.1 32.45L8.1 32.45L8.1 32.45L0 32.45ZM15.59 48L23.28 40.23L23.28 30.32L18.9 30.32L15.59 33.54L15.59 39.9L15.59 39.9L15.59 39.9L15.59 39.9L15.59 39.9L15.59 39.9L15.59 39.9L15.59 39.9L15.59 39.9L15.59 39.9L15.59 39.9L15.59 39.9L15.59 39.9L15.59 39.9L15.59 39.9L15.59 39.9L15.59 39.9L15.59 39.9L15.59 39.9L15.59 39.9L15.59 39.9L15.59 39.9L15.59 39.9L15.59 39.9L15.59 39.9L15.59 39.9L15.59 39.9L15.59 39.9L15.59 39.9L15.59 39.9L15.59 39.9L15.59 39.9L15.59 48ZM6.44 39.88L8.18 39.88L8.18 41.62L6.44 41.62L6.44 41.62L6.44 41.62L6.44 41.62L6.44 41.62L6.44 41.62L6.44 41.62L6.44 41.62L6.44 41.62L6.44 41.62L6.44 41.62L6.44 41.62L6.44 41.62L6.44 41.62L6.44 41.62L6.44 41.62L6.44 41.62L6.44 41.62L6.44 41.62L6.44 41.62L6.44 41.62L6.44 41.62L6.44 41.62L6.44 41.62L6.44 41.62L6.44 41.62L6.44 41.62L6.44 41.62L6.44 41.62L6.44 41.62L6.44 41.62L6.44 39.88ZM4.97 44.25L9.58 44.25L7.28 41.94L7.28 41.94L7.28 41.94L7.28 41.94L7.28 41.94L7.28 41.94L7.28 41.94L7.28 41.94L7.28 41.94L7.28 41.94L7.28 41.94L7.28 41.94L7.28 41.94L7.28 41.94L7.28 41.94L7.28 41.94L7.28 41.94L7.28 41.94L7.28 41.94L7.28 41.94L7.28 41.94L7.28 41.94L7.28 41.94L7.28 41.94L7.28 41.94L7.28 41.94L7.28 41.94L7.28 41.94L7.28 41.94L7.28 41.94L4.97 44.25ZM10.81 43.02L10.81 38.41L8.5 40.72L8.5 40.72L8.5 40.72L8.5 40.72L8.5 40.72L8.5 40.72L8.5 40.72L8.5 40.72L8.5 40.72L8.5 40.72L8.5 40.72L8.5 40.72L8.5 40.72L8.5 40.72L8.5 40.72L8.5 40.72L8.5 40.72L8.5 40.72L8.5 40.72L8.5 40.72L8.5 40.72L8.5 40.72L8.5 40.72L8.5 40.72L8.5 40.72L8.5 40.72L8.5 40.72L8.5 40.72L8.5 40.72L10.81 43.02ZM14.49 32.48L15.57 33.56L10.76 38.38L9.67 37.29L9.67 37.29L9.67 37.29L9.67 37.29L9.67 37.29L9.67 37.29L9.67 37.29L9.67 37.29L9.67 37.29L9.67 37.29L9.67 37.29L9.67 37.29L9.67 37.29L9.67 37.29L9.67 37.29L9.67 37.29L9.67 37.29L9.67 37.29L9.67 37.29L9.67 37.29L9.67 37.29L9.67 37.29L9.67 37.29L9.67 37.29L9.67 37.29L9.67 37.29L9.67 37.29L9.67 37.29L14.49 32.48ZM37.16 38.3L37.16 42.92L39.47 40.61L39.47 40.61L39.47 40.61L39.47 40.61L39.47 40.61L39.47 40.61L39.47 40.61L39.47 40.61L39.47 40.61L39.47 40.61L39.47 40.61L39.47 40.61L39.47 40.61L39.47 40.61L39.47 40.61L39.47 40.61L39.47 40.61L39.47 40.61L39.47 40.61L39.47 40.61L39.47 40.61L39.47 40.61L39.47 40.61L39.47 40.61L39.47 40.61L39.47 40.61L39.47 40.61L37.16 38.3ZM38.39 44.14L43 44.15L40.69 41.84L40.69 41.84L40.69 41.84L40.69 41.84L40.69 41.84L40.69 41.84L40.69 41.84L40.69 41.84L40.69 41.84L40.69 41.84L40.69 41.84L40.69 41.84L40.69 41.84L40.69 41.84L40.69 41.84L40.69 41.84L40.69 41.84L40.69 41.84L40.69 41.84L40.69 41.84L40.69 41.84L40.69 41.84L40.69 41.84L40.69 41.84L40.69 41.84L40.69 41.84L38.39 44.14ZM24.25 29.11L24.25 24.41L29.04 24.41L29.04 29.11L29.04 29.11L29.04 29.11L29.04 29.11L29.04 29.11L29.04 29.11L29.04 29.11L29.04 29.11L29.04 29.11L29.04 29.11L29.04 29.11L29.04 29.11L29.04 29.11L29.04 29.11L29.04 29.11L29.04 29.11L29.04 29.11L29.04 29.11L29.04 29.11L29.04 29.11L29.04 29.11L29.04 29.11L29.04 29.11L29.04 29.11L29.04 29.11L24.25 29.11ZM32.35 47.95L24.66 40.18L24.66 30.27L29.04 30.27L32.35 33.49L32.35 39.85L32.35 39.85L32.35 39.85L32.35 39.85L32.35 39.85L32.35 39.85L32.35 39.85L32.35 39.85L32.35 39.85L32.35 39.85L32.35 39.85L32.35 39.85L32.35 39.85L32.35 39.85L32.35 39.85L32.35 39.85L32.35 39.85L32.35 39.85L32.35 39.85L32.35 39.85L32.35 39.85L32.35 39.85L32.35 39.85L32.35 39.85L32.35 47.95ZM47.9 32.36L40.13 24.67L30.22 24.67L30.22 29.05L33.44 32.36L39.8 32.36L39.8 32.36L39.8 32.36L39.8 32.36L39.8 32.36L39.8 32.36L39.8 32.36L39.8 32.36L39.8 32.36L39.8 32.36L39.8 32.36L39.8 32.36L39.8 32.36L39.8 32.36L39.8 32.36L39.8 32.36L39.8 32.36L39.8 32.36L39.8 32.36L39.8 32.36L39.8 32.36L39.8 32.36L39.8 32.36L47.9 32.36ZM39.78 41.5L39.78 39.77L41.52 39.77L41.52 41.5L41.52 41.5L41.52 41.5L41.52 41.5L41.52 41.5L41.52 41.5L41.52 41.5L41.52 41.5L41.52 41.5L41.52 41.5L41.52 41.5L41.52 41.5L41.52 41.5L41.52 41.5L41.52 41.5L41.52 41.5L41.52 41.5L41.52 41.5L41.52 41.5L41.52 41.5L41.52 41.5L41.52 41.5L39.78 41.5ZM44.15 42.98L44.15 38.36L41.84 40.67L41.84 40.67L41.84 40.67L41.84 40.67L41.84 40.67L41.84 40.67L41.84 40.67L41.84 40.67L41.84 40.67L41.84 40.67L41.84 40.67L41.84 40.67L41.84 40.67L41.84 40.67L41.84 40.67L41.84 40.67L41.84 40.67L41.84 40.67L41.84 40.67L41.84 40.67L41.84 40.67L44.15 42.98ZM42.92 37.14L38.31 37.14L40.62 39.45L40.62 39.45L40.62 39.45L40.62 39.45L40.62 39.45L40.62 39.45L40.62 39.45L40.62 39.45L40.62 39.45L40.62 39.45L40.62 39.45L40.62 39.45L40.62 39.45L40.62 39.45L40.62 39.45L40.62 39.45L40.62 39.45L40.62 39.45L40.62 39.45L40.62 39.45L42.92 37.14ZM32.38 33.46L33.46 32.37L38.28 37.19L37.19 38.28L37.19 38.28L37.19 38.28L37.19 38.28L37.19 38.28L37.19 38.28L37.19 38.28L37.19 38.28L37.19 38.28L37.19 38.28L37.19 38.28L37.19 38.28L37.19 38.28L37.19 38.28L37.19 38.28L37.19 38.28L37.19 38.28L37.19 38.28L37.19 38.28L32.38 33.46ZM38.26 10.74L42.87 10.74L40.56 8.43L40.56 8.43L40.56 8.43L40.56 8.43L40.56 8.43L40.56 8.43L40.56 8.43L40.56 8.43L40.56 8.43L40.56 8.43L40.56 8.43L40.56 8.43L40.56 8.43L40.56 8.43L40.56 8.43L40.56 8.43L40.56 8.43L40.56 8.43L38.26 10.74ZM44.09 9.51L44.1 4.9L41.79 7.21L41.79 7.21L41.79 7.21L41.79 7.21L41.79 7.21L41.79 7.21L41.79 7.21L41.79 7.21L41.79 7.21L41.79 7.21L41.79 7.21L41.79 7.21L41.79 7.21L41.79 7.21L41.79 7.21L41.79 7.21L41.79 7.21L44.09 9.51ZM29.06 23.65L24.36 23.65L24.36 18.86L29.06 18.86L29.06 18.86L29.06 18.86L29.06 18.86L29.06 18.86L29.06 18.86L29.06 18.86L29.06 18.86L29.06 18.86L29.06 18.86L29.06 18.86L29.06 18.86L29.06 18.86L29.06 18.86L29.06 18.86L29.06 18.86L29.06 23.65ZM47.9 15.55L40.13 23.24L30.22 23.24L30.22 18.86L33.44 15.55L39.8 15.55L39.8 15.55L39.8 15.55L39.8 15.55L39.8 15.55L39.8 15.55L39.8 15.55L39.8 15.55L39.8 15.55L39.8 15.55L39.8 15.55L39.8 15.55L39.8 15.55L39.8 15.55L39.8 15.55L47.9 15.55ZM32.31 0L24.62 7.77L24.62 17.68L29 17.68L32.31 14.46L32.31 8.1L32.31 8.1L32.31 8.1L32.31 8.1L32.31 8.1L32.31 8.1L32.31 8.1L32.31 8.1L32.31 8.1L32.31 8.1L32.31 8.1L32.31 8.1L32.31 8.1L32.31 8.1L32.31 0ZM41.46 8.12L39.72 8.12L39.72 6.38L41.46 6.38L41.46 6.38L41.46 6.38L41.46 6.38L41.46 6.38L41.46 6.38L41.46 6.38L41.46 6.38L41.46 6.38L41.46 6.38L41.46 6.38L41.46 6.38L41.46 6.38L41.46 8.12ZM42.93 3.75L38.32 3.75L40.62 6.06L40.62 6.06L40.62 6.06L40.62 6.06L40.62 6.06L40.62 6.06L40.62 6.06L40.62 6.06L40.62 6.06L40.62 6.06L40.62 6.06L40.62 6.06L42.93 3.75ZM37.09 4.98L37.09 9.59L39.4 7.28L39.4 7.28L39.4 7.28L39.4 7.28L39.4 7.28L39.4 7.28L39.4 7.28L39.4 7.28L39.4 7.28L39.4 7.28L39.4 7.28L37.09 4.98ZM33.41 15.52L32.33 14.44L37.14 9.62L38.23 10.71L38.23 10.71L38.23 10.71L38.23 10.71L38.23 10.71L38.23 10.71L38.23 10.71L38.23 10.71L38.23 10.71L38.23 10.71L33.41 15.52ZM10.74 9.7L10.74 5.08L8.43 7.39L8.43 7.39L8.43 7.39L8.43 7.39L8.43 7.39L8.43 7.39L8.43 7.39L8.43 7.39L8.43 7.39L10.74 9.7ZM9.51 3.86L4.9 3.86L7.21 6.16L7.21 6.16L7.21 6.16L7.21 6.16L7.21 6.16L7.21 6.16L7.21 6.16L7.21 6.16L9.51 3.86ZM23.65 18.89L23.65 23.6L18.86 23.6L18.86 18.89L18.86 18.89L18.86 18.89L18.86 18.89L18.86 18.89L18.86 18.89L18.86 18.89L23.65 18.89ZM15.55 0.05L23.24 7.82L23.24 17.73L18.86 17.73L15.55 14.51L15.55 8.15L15.55 8.15L15.55 8.15L15.55 8.15L15.55 8.15L15.55 8.15L15.55 0.05ZM0 15.65L7.77 23.33L17.68 23.33L17.68 18.95L14.46 15.65L8.1 15.65L8.1 15.65L8.1 15.65L8.1 15.65L8.1 15.65L0 15.65ZM8.12 6.5L8.12 8.23L6.38 8.23L6.38 6.5L6.38 6.5L6.38 6.5L6.38 6.5L8.12 6.5ZM3.75 5.02L3.75 9.64L6.06 7.33L6.06 7.33L6.06 7.33L3.75 5.02ZM4.98 10.86L9.59 10.86L7.28 8.55L7.28 8.55L4.98 10.86ZM15.52 14.54L14.44 15.63L9.62 10.81L10.71 9.72L15.52 14.54Z" id="f1p3lJn3Vr"></path></defs><g><g><g><use xlink:href="#f1p3lJn3Vr" opacity="1" fill="#ff0000" fill-opacity="1"></use></g></g></g></svg>