<?xml version="1.0" encoding="UTF-8" standalone="no"?>
<!DOCTYPE svg PUBLIC "-//W3C//DTD SVG 1.1//EN" "http://www.w3.org/Graphics/SVG/1.1/DTD/svg11.dtd">
<svg version="1.1" xmlns="http://www.w3.org/2000/svg" xmlns:xlink="http://www.w3.org/1999/xlink" preserveAspectRatio="xMidYMid meet" viewBox="0 0 62 62" width="62" height="62"><defs><path d="M12.09 48.13L6.3 48.13L9.2 51.11L9.2 51.11L9.2 51.11L9.2 51.11L9.2 51.11L9.2 51.11L9.2 51.11L9.2 51.11L9.2 51.11L9.2 51.11L9.2 51.11L9.2 51.11L9.2 51.11L9.2 51.11L9.2 51.11L9.2 51.11L9.2 51.11L9.2 51.11L9.2 51.11L9.2 51.11L9.2 51.11L9.2 51.11L9.2 51.11L9.2 51.11L9.2 51.11L9.2 51.11L9.2 51.11L9.2 51.11L9.2 51.11L9.2 51.11L9.2 51.11L9.2 51.11L9.2 51.11L9.2 51.11L9.2 51.11L12.09 48.13ZM4.77 49.71L4.77 55.67L7.66 52.69L7.66 52.69L7.66 52.69L7.66 52.69L7.66 52.69L7.66 52.69L7.66 52.69L7.66 52.69L7.66 52.69L7.66 52.69L7.66 52.69L7.66 52.69L7.66 52.69L7.66 52.69L7.66 52.69L7.66 52.69L7.66 52.69L7.66 52.69L7.66 52.69L7.66 52.69L7.66 52.69L7.66 52.69L7.66 52.69L7.66 52.69L7.66 52.69L7.66 52.69L7.66 52.69L7.66 52.69L7.66 52.69L7.66 52.69L7.66 52.69L7.66 52.69L7.66 52.69L7.66 52.69L7.66 52.69L4.77 49.71ZM23.61 31.46L29.51 31.46L29.51 37.64L23.61 37.64L23.61 37.64L23.61 37.64L23.61 37.64L23.61 37.64L23.61 37.64L23.61 37.64L23.61 37.64L23.61 37.64L23.61 37.64L23.61 37.64L23.61 37.64L23.61 37.64L23.61 37.64L23.61 37.64L23.61 37.64L23.61 37.64L23.61 37.64L23.61 37.64L23.61 37.64L23.61 37.64L23.61 37.64L23.61 37.64L23.61 37.64L23.61 37.64L23.61 37.64L23.61 37.64L23.61 37.64L23.61 37.64L23.61 37.64L23.61 37.64L23.61 37.64L23.61 37.64L23.61 37.64L23.61 31.46ZM0 41.91L9.73 31.99L22.16 31.99L22.16 37.64L18.12 41.91L10.15 41.91L10.15 41.91L10.15 41.91L10.15 41.91L10.15 41.91L10.15 41.91L10.15 41.91L10.15 41.91L10.15 41.91L10.15 41.91L10.15 41.91L10.15 41.91L10.15 41.91L10.15 41.91L10.15 41.91L10.15 41.91L10.15 41.91L10.15 41.91L10.15 41.91L10.15 41.91L10.15 41.91L10.15 41.91L10.15 41.91L10.15 41.91L10.15 41.91L10.15 41.91L10.15 41.91L10.15 41.91L10.15 41.91L10.15 41.91L10.15 41.91L10.15 41.91L10.15 41.91L0 41.91ZM19.54 62L29.17 51.97L29.17 39.16L23.68 39.16L19.54 43.33L19.54 51.54L19.54 51.54L19.54 51.54L19.54 51.54L19.54 51.54L19.54 51.54L19.54 51.54L19.54 51.54L19.54 51.54L19.54 51.54L19.54 51.54L19.54 51.54L19.54 51.54L19.54 51.54L19.54 51.54L19.54 51.54L19.54 51.54L19.54 51.54L19.54 51.54L19.54 51.54L19.54 51.54L19.54 51.54L19.54 51.54L19.54 51.54L19.54 51.54L19.54 51.54L19.54 51.54L19.54 51.54L19.54 51.54L19.54 51.54L19.54 51.54L19.54 51.54L19.54 62ZM8.08 51.52L10.25 51.52L10.25 53.76L8.08 53.76L8.08 53.76L8.08 53.76L8.08 53.76L8.08 53.76L8.08 53.76L8.08 53.76L8.08 53.76L8.08 53.76L8.08 53.76L8.08 53.76L8.08 53.76L8.08 53.76L8.08 53.76L8.08 53.76L8.08 53.76L8.08 53.76L8.08 53.76L8.08 53.76L8.08 53.76L8.08 53.76L8.08 53.76L8.08 53.76L8.08 53.76L8.08 53.76L8.08 53.76L8.08 53.76L8.08 53.76L8.08 53.76L8.08 53.76L8.08 53.76L8.08 51.52ZM6.23 57.16L12.01 57.16L9.12 54.18L9.12 54.18L9.12 54.18L9.12 54.18L9.12 54.18L9.12 54.18L9.12 54.18L9.12 54.18L9.12 54.18L9.12 54.18L9.12 54.18L9.12 54.18L9.12 54.18L9.12 54.18L9.12 54.18L9.12 54.18L9.12 54.18L9.12 54.18L9.12 54.18L9.12 54.18L9.12 54.18L9.12 54.18L9.12 54.18L9.12 54.18L9.12 54.18L9.12 54.18L9.12 54.18L9.12 54.18L9.12 54.18L9.12 54.18L6.23 57.16ZM13.55 55.57L13.55 49.61L10.66 52.59L10.66 52.59L10.66 52.59L10.66 52.59L10.66 52.59L10.66 52.59L10.66 52.59L10.66 52.59L10.66 52.59L10.66 52.59L10.66 52.59L10.66 52.59L10.66 52.59L10.66 52.59L10.66 52.59L10.66 52.59L10.66 52.59L10.66 52.59L10.66 52.59L10.66 52.59L10.66 52.59L10.66 52.59L10.66 52.59L10.66 52.59L10.66 52.59L10.66 52.59L10.66 52.59L10.66 52.59L10.66 52.59L13.55 55.57ZM18.16 41.95L19.52 43.35L13.49 49.57L12.12 48.17L12.12 48.17L12.12 48.17L12.12 48.17L12.12 48.17L12.12 48.17L12.12 48.17L12.12 48.17L12.12 48.17L12.12 48.17L12.12 48.17L12.12 48.17L12.12 48.17L12.12 48.17L12.12 48.17L12.12 48.17L12.12 48.17L12.12 48.17L12.12 48.17L12.12 48.17L12.12 48.17L12.12 48.17L12.12 48.17L12.12 48.17L12.12 48.17L12.12 48.17L12.12 48.17L12.12 48.17L18.16 41.95ZM46.57 49.48L46.57 55.44L49.46 52.45L49.46 52.45L49.46 52.45L49.46 52.45L49.46 52.45L49.46 52.45L49.46 52.45L49.46 52.45L49.46 52.45L49.46 52.45L49.46 52.45L49.46 52.45L49.46 52.45L49.46 52.45L49.46 52.45L49.46 52.45L49.46 52.45L49.46 52.45L49.46 52.45L49.46 52.45L49.46 52.45L49.46 52.45L49.46 52.45L49.46 52.45L49.46 52.45L49.46 52.45L49.46 52.45L46.57 49.48ZM48.11 57.02L53.89 57.02L51 54.04L51 54.04L51 54.04L51 54.04L51 54.04L51 54.04L51 54.04L51 54.04L51 54.04L51 54.04L51 54.04L51 54.04L51 54.04L51 54.04L51 54.04L51 54.04L51 54.04L51 54.04L51 54.04L51 54.04L51 54.04L51 54.04L51 54.04L51 54.04L51 54.04L51 54.04L48.11 57.02ZM30.39 37.6L30.39 31.52L36.4 31.52L36.4 37.6L36.4 37.6L36.4 37.6L36.4 37.6L36.4 37.6L36.4 37.6L36.4 37.6L36.4 37.6L36.4 37.6L36.4 37.6L36.4 37.6L36.4 37.6L36.4 37.6L36.4 37.6L36.4 37.6L36.4 37.6L36.4 37.6L36.4 37.6L36.4 37.6L36.4 37.6L36.4 37.6L36.4 37.6L36.4 37.6L36.4 37.6L36.4 37.6L30.39 37.6ZM40.54 61.93L30.91 51.9L30.91 39.1L36.4 39.1L40.54 43.26L40.54 51.48L40.54 51.48L40.54 51.48L40.54 51.48L40.54 51.48L40.54 51.48L40.54 51.48L40.54 51.48L40.54 51.48L40.54 51.48L40.54 51.48L40.54 51.48L40.54 51.48L40.54 51.48L40.54 51.48L40.54 51.48L40.54 51.48L40.54 51.48L40.54 51.48L40.54 51.48L40.54 51.48L40.54 51.48L40.54 51.48L40.54 51.48L40.54 61.93ZM60.03 41.79L50.3 31.87L37.87 31.87L37.87 37.52L41.91 41.79L49.88 41.79L49.88 41.79L49.88 41.79L49.88 41.79L49.88 41.79L49.88 41.79L49.88 41.79L49.88 41.79L49.88 41.79L49.88 41.79L49.88 41.79L49.88 41.79L49.88 41.79L49.88 41.79L49.88 41.79L49.88 41.79L49.88 41.79L49.88 41.79L49.88 41.79L49.88 41.79L49.88 41.79L49.88 41.79L49.88 41.79L60.03 41.79ZM49.86 53.61L49.86 51.37L52.03 51.37L52.03 53.61L52.03 53.61L52.03 53.61L52.03 53.61L52.03 53.61L52.03 53.61L52.03 53.61L52.03 53.61L52.03 53.61L52.03 53.61L52.03 53.61L52.03 53.61L52.03 53.61L52.03 53.61L52.03 53.61L52.03 53.61L52.03 53.61L52.03 53.61L52.03 53.61L52.03 53.61L52.03 53.61L52.03 53.61L49.86 53.61ZM55.33 55.51L55.33 49.55L52.44 52.54L52.44 52.54L52.44 52.54L52.44 52.54L52.44 52.54L52.44 52.54L52.44 52.54L52.44 52.54L52.44 52.54L52.44 52.54L52.44 52.54L52.44 52.54L52.44 52.54L52.44 52.54L52.44 52.54L52.44 52.54L52.44 52.54L52.44 52.54L52.44 52.54L52.44 52.54L52.44 52.54L55.33 55.51ZM53.79 47.97L48.01 47.97L50.9 50.95L50.9 50.95L50.9 50.95L50.9 50.95L50.9 50.95L50.9 50.95L50.9 50.95L50.9 50.95L50.9 50.95L50.9 50.95L50.9 50.95L50.9 50.95L50.9 50.95L50.9 50.95L50.9 50.95L50.9 50.95L50.9 50.95L50.9 50.95L50.9 50.95L50.9 50.95L53.79 47.97ZM40.57 43.22L41.94 41.82L47.97 48.03L46.61 49.44L46.61 49.44L46.61 49.44L46.61 49.44L46.61 49.44L46.61 49.44L46.61 49.44L46.61 49.44L46.61 49.44L46.61 49.44L46.61 49.44L46.61 49.44L46.61 49.44L46.61 49.44L46.61 49.44L46.61 49.44L46.61 49.44L46.61 49.44L46.61 49.44L40.57 43.22ZM47.94 13.87L53.73 13.87L50.83 10.89L50.83 10.89L50.83 10.89L50.83 10.89L50.83 10.89L50.83 10.89L50.83 10.89L50.83 10.89L50.83 10.89L50.83 10.89L50.83 10.89L50.83 10.89L50.83 10.89L50.83 10.89L50.83 10.89L50.83 10.89L50.83 10.89L50.83 10.89L47.94 13.87ZM55.26 12.29L55.26 6.33L52.37 9.31L52.37 9.31L52.37 9.31L52.37 9.31L52.37 9.31L52.37 9.31L52.37 9.31L52.37 9.31L52.37 9.31L52.37 9.31L52.37 9.31L52.37 9.31L52.37 9.31L52.37 9.31L52.37 9.31L52.37 9.31L52.37 9.31L55.26 12.29ZM36.42 30.54L30.52 30.54L30.52 24.36L36.42 24.36L36.42 24.36L36.42 24.36L36.42 24.36L36.42 24.36L36.42 24.36L36.42 24.36L36.42 24.36L36.42 24.36L36.42 24.36L36.42 24.36L36.42 24.36L36.42 24.36L36.42 24.36L36.42 24.36L36.42 24.36L36.42 30.54ZM60.03 20.09L50.3 30.01L37.87 30.01L37.87 24.36L41.91 20.09L49.88 20.09L49.88 20.09L49.88 20.09L49.88 20.09L49.88 20.09L49.88 20.09L49.88 20.09L49.88 20.09L49.88 20.09L49.88 20.09L49.88 20.09L49.88 20.09L49.88 20.09L49.88 20.09L49.88 20.09L60.03 20.09ZM40.49 0L30.86 10.03L30.86 22.84L36.35 22.84L40.49 18.67L40.49 10.46L40.49 10.46L40.49 10.46L40.49 10.46L40.49 10.46L40.49 10.46L40.49 10.46L40.49 10.46L40.49 10.46L40.49 10.46L40.49 10.46L40.49 10.46L40.49 10.46L40.49 10.46L40.49 0ZM51.95 10.48L49.78 10.48L49.78 8.24L51.95 8.24L51.95 8.24L51.95 8.24L51.95 8.24L51.95 8.24L51.95 8.24L51.95 8.24L51.95 8.24L51.95 8.24L51.95 8.24L51.95 8.24L51.95 8.24L51.95 8.24L51.95 10.48ZM53.8 4.84L48.02 4.84L50.91 7.82L50.91 7.82L50.91 7.82L50.91 7.82L50.91 7.82L50.91 7.82L50.91 7.82L50.91 7.82L50.91 7.82L50.91 7.82L50.91 7.82L50.91 7.82L53.8 4.84ZM46.48 6.43L46.48 12.39L49.37 9.41L49.37 9.41L49.37 9.41L49.37 9.41L49.37 9.41L49.37 9.41L49.37 9.41L49.37 9.41L49.37 9.41L49.37 9.41L49.37 9.41L46.48 6.43ZM41.87 20.05L40.51 18.65L46.54 12.43L47.91 13.83L47.91 13.83L47.91 13.83L47.91 13.83L47.91 13.83L47.91 13.83L47.91 13.83L47.91 13.83L47.91 13.83L47.91 13.83L41.87 20.05ZM13.46 12.52L13.46 6.56L10.57 9.55L10.57 9.55L10.57 9.55L10.57 9.55L10.57 9.55L10.57 9.55L10.57 9.55L10.57 9.55L10.57 9.55L13.46 12.52ZM11.92 4.98L6.14 4.98L9.03 7.96L9.03 7.96L9.03 7.96L9.03 7.96L9.03 7.96L9.03 7.96L9.03 7.96L9.03 7.96L11.92 4.98ZM29.64 24.4L29.64 30.48L23.63 30.48L23.63 24.4L23.63 24.4L23.63 24.4L23.63 24.4L23.63 24.4L23.63 24.4L23.63 24.4L29.64 24.4ZM19.49 0.07L29.12 10.1L29.12 22.9L23.63 22.9L19.49 18.74L19.49 10.52L19.49 10.52L19.49 10.52L19.49 10.52L19.49 10.52L19.49 10.52L19.49 0.07ZM0 20.21L9.73 30.13L22.16 30.13L22.16 24.48L18.12 20.21L10.15 20.21L10.15 20.21L10.15 20.21L10.15 20.21L10.15 20.21L0 20.21ZM10.17 8.39L10.17 10.63L8 10.63L8 8.39L8 8.39L8 8.39L8 8.39L10.17 8.39ZM4.7 6.49L4.7 12.45L7.59 9.46L7.59 9.46L7.59 9.46L4.7 6.49ZM6.24 14.03L12.02 14.03L9.13 11.05L9.13 11.05L6.24 14.03ZM19.46 18.78L18.09 20.18L12.06 13.97L13.42 12.56L19.46 18.78Z" id="a64nQsolVP"></path></defs><g><g><g><use xlink:href="#a64nQsolVP" opacity="1" fill="#76b48f" fill-opacity="1"></use></g></g></g></svg>